<svg width="157" height="36" viewBox="0 0 157 36" fill="none" xmlns="http://www.w3.org/2000/svg">
<g clip-path="url(#clip0_616_2980)">
<path d="M54.029 12.4779C54.029 11.7288 53.4512 11.1143 52.6424 11.1143C51.8336 11.1143 51.2559 11.7288 51.2559 12.4779V23.5402C51.2559 24.2893 51.8336 24.9039 52.6424 24.9039C53.4704 24.9039 54.029 24.2893 54.029 23.5402V12.4779Z" fill="#041527"/>
<path d="M67.6834 11.1143C66.8747 11.1143 66.3161 11.7288 66.3161 12.4779V17.2024L66.3931 21.4277L64.7178 17.4712L62.5224 12.9772C61.8484 11.5752 61.0782 11.1143 59.9805 11.1143C58.363 11.1143 57.6504 12.1321 57.6504 13.5918V23.5402C57.6504 24.2893 58.2088 24.9039 59.0177 24.9039C59.8265 24.9039 60.3849 24.2893 60.3849 23.5402L60.3657 18.8734L60.3079 14.0911L62.0988 18.4699L64.3134 23.0409C65.0067 24.5005 65.7385 24.9232 66.8553 24.9232C68.2996 24.9232 69.0506 24.0396 69.0506 22.4072V12.4779C69.0506 11.7288 68.4922 11.1143 67.6834 11.1143Z" fill="#041527"/>
<path d="M79.2756 13.9375L82.4145 14.0143C83.1462 14.0335 83.724 13.4766 83.724 12.6699C83.724 11.8633 83.1462 11.3063 82.4145 11.3063L73.325 11.2871C72.6126 11.2871 72.0156 11.8441 72.0156 12.6507C72.0156 13.4573 72.6126 14.0143 73.325 13.9951L76.4833 13.9375V23.5402C76.4833 24.2893 77.0609 24.904 77.8698 24.904C78.6978 24.904 79.2756 24.2893 79.2756 23.5402V13.9375Z" fill="#041527"/>
<path d="M88.5803 24.7317H95.3395C96.0521 24.7317 96.6299 24.1939 96.6299 23.4448C96.6299 22.6767 96.0521 22.1389 95.3395 22.1389L89.4661 22.1581V18.9507H94.55C95.2433 18.9507 95.8017 18.4322 95.8017 17.7216C95.8017 16.9918 95.2433 16.4732 94.55 16.4732L89.4661 16.5116V13.8613H95.3395C96.0521 13.8613 96.6299 13.3236 96.6299 12.5553C96.6299 11.7871 96.0521 11.2686 95.3395 11.2686L88.5995 11.2878C87.367 11.2878 86.6738 11.9791 86.6738 13.2083V22.8112C86.6738 24.0402 87.367 24.7317 88.5803 24.7317Z" fill="#041527"/>
<path d="M107.64 19.2575C109.469 18.7773 110.548 17.3561 110.548 15.4739C110.548 13.3805 109.18 11.2871 105.907 11.2871H101.67C100.437 11.2871 99.7441 11.9785 99.7441 13.2077V23.5402C99.7441 24.2893 100.322 24.904 101.169 24.904C101.997 24.904 102.594 24.2893 102.594 23.5402L102.575 19.9296H104.905L107.274 24.1933C107.659 24.8463 108.468 25.1151 109.219 24.731C109.97 24.3278 110.182 23.521 109.777 22.8682L107.64 19.2575ZM102.575 13.8415H105.926C107.062 13.8415 107.774 14.5521 107.774 15.6084C107.774 16.6455 107.1 17.4138 105.964 17.4138H102.575V13.8415Z" fill="#041527"/>
<path d="M119.052 24.9813C121.864 24.9813 123.674 23.7138 124.29 21.6588C124.618 20.4872 123.925 19.6422 122.885 19.6422C122.249 19.6422 121.825 19.9686 121.575 20.6793C121.19 21.7548 120.246 22.4271 118.898 22.4271C116.761 22.4271 115.836 20.9865 115.836 17.9905C115.836 15.0521 116.78 13.65 118.898 13.65C120.227 13.65 120.997 14.207 121.479 15.4938C121.748 16.2236 122.191 16.5501 122.846 16.5501C123.847 16.5501 124.579 15.7435 124.271 14.6295C123.655 12.3633 121.864 11.0957 118.975 11.0957C115.008 11.0957 112.986 13.5156 112.986 17.9905C112.986 22.5038 115.008 24.9813 119.052 24.9813Z" fill="#041527"/>
<path d="M132.743 24.9427C136.826 24.9427 138.848 22.4458 138.848 17.9901C138.848 13.4961 136.768 11.0186 132.743 11.0186C128.7 11.0186 126.677 13.5345 126.658 17.9901C126.658 22.465 128.719 24.9427 132.743 24.9427ZM132.743 22.3691C130.471 22.3691 129.489 20.9287 129.489 17.9901C129.489 15.0133 130.49 13.5729 132.724 13.5729C134.977 13.5729 136.036 15.0133 136.017 17.9901C136.017 20.9478 135.016 22.3691 132.743 22.3691Z" fill="#041527"/>
<path d="M156.774 13.5156C156.774 11.9984 155.831 11.0957 154.367 11.0957C153.173 11.0957 152.268 11.7487 151.825 13.2467L150.342 18.0673L149.36 21.5435L148.417 18.0673L146.838 13.2467C146.395 11.8447 145.624 11.0957 144.276 11.0957C142.793 11.0957 141.869 11.9792 141.869 13.5156V23.5409C141.869 24.29 142.408 24.9046 143.198 24.9046C143.987 24.9046 144.527 24.29 144.527 23.5409L144.507 18.7011L144.373 13.5156L145.894 18.8164L147.512 23.5025C147.858 24.5396 148.513 24.8854 149.36 24.8854C150.15 24.8854 150.785 24.5972 151.113 23.5409L152.653 18.8164L154.29 13.4772L154.136 18.7011V23.5409C154.136 24.29 154.694 24.9046 155.465 24.9046C156.254 24.9046 156.794 24.29 156.794 23.5409L156.774 13.5156Z" fill="#041527"/>
<path d="M31.171 19.8048C31.171 20.125 31.0449 20.4319 30.8203 20.6582C30.5958 20.8844 30.2912 21.0117 29.9736 21.0117C29.656 21.0117 29.3514 20.8844 29.1269 20.6582C28.9023 20.4319 28.7762 20.125 28.7762 19.8048V9.02383C28.7762 8.70378 28.9023 8.39683 29.1269 8.17053C29.3514 7.94421 29.656 7.81707 29.9736 7.81707C30.2912 7.81707 30.5958 7.94421 30.8203 8.17053C31.0449 8.39683 31.171 8.70378 31.171 9.02383V19.8048ZM30.7553 27.2748C30.597 27.4344 26.144 31.1743 17.9802 31.1743C9.81639 31.1743 5.39307 27.4544 5.20506 27.2947C5.08658 27.194 4.98898 27.0707 4.91786 26.932C4.84675 26.7931 4.80351 26.6416 4.79064 26.4859C4.77778 26.3303 4.79551 26.1736 4.84286 26.0248C4.8902 25.8762 4.96621 25.7382 5.06652 25.6192C5.27318 25.3782 5.566 25.2294 5.88114 25.205C6.19627 25.1808 6.50815 25.2831 6.74876 25.4896C6.81804 25.5395 10.796 28.7907 17.9703 28.7907C25.1446 28.7907 29.1522 25.5195 29.1919 25.4896C29.4352 25.2849 29.7481 25.1839 30.064 25.2082C30.38 25.2324 30.6742 25.3798 30.884 25.6192C31.0858 25.8566 31.1866 26.1648 31.1644 26.4766C31.1422 26.7884 30.9988 27.0789 30.7652 27.2848L30.7553 27.2748ZM4.77955 9.02383C4.79744 8.70277 4.94073 8.40189 5.17807 8.18699C5.41541 7.97207 5.72752 7.86059 6.04618 7.87691C6.34159 7.89382 6.62033 8.02037 6.82863 8.23215C7.03695 8.44393 7.16008 8.72597 7.17427 9.02383V19.785C7.17427 20.105 7.04812 20.4119 6.82358 20.6382C6.59902 20.8646 6.29447 20.9917 5.97691 20.9917C5.65935 20.9917 5.3548 20.8646 5.13025 20.6382C4.90571 20.4119 4.77955 20.105 4.77955 19.785V9.02383ZM10.7862 6.63026C10.804 6.30919 10.9473 6.00832 11.1847 5.79342C11.422 5.5785 11.7341 5.46703 12.0528 5.48334C12.3482 5.50026 12.6269 5.6268 12.8352 5.83858C13.0435 6.05037 13.1667 6.33239 13.1809 6.63026V22.5874C13.1809 22.9075 13.0547 23.2144 12.8302 23.4407C12.6056 23.667 12.3011 23.7941 11.9835 23.7941C11.6659 23.7941 11.3614 23.667 11.1368 23.4407C10.9123 23.2144 10.7862 22.9075 10.7862 22.5874V6.63026ZM16.8225 6.03187C16.8225 5.71182 16.9486 5.40487 17.1732 5.17857C17.3977 4.95225 17.7023 4.82511 18.0197 4.82511C18.3373 4.82511 18.6419 4.95225 18.8665 5.17857C19.091 5.40487 19.2171 5.71182 19.2171 6.03187V23.3853C19.2171 23.7052 19.091 24.0122 18.8665 24.2386C18.6419 24.4649 18.3373 24.592 18.0197 24.592C17.7023 24.592 17.3977 24.4649 17.1732 24.2386C16.9486 24.0122 16.8225 23.7052 16.8225 23.3853V6.03187ZM22.7598 6.63026C22.7598 6.31021 22.8859 6.00327 23.1105 5.77695C23.335 5.55065 23.6396 5.4235 23.9571 5.4235C24.2747 5.4235 24.5792 5.55065 24.8038 5.77695C25.0283 6.00327 25.1545 6.31021 25.1545 6.63026V22.5874C25.1545 22.9075 25.0283 23.2144 24.8038 23.4407C24.5792 23.667 24.2747 23.7941 23.9571 23.7941C23.6396 23.7941 23.335 23.667 23.1105 23.4407C22.8859 23.2144 22.7598 22.9075 22.7598 22.5874V6.63026ZM31.4975 0.0479512H4.50247C3.91426 0.0440107 3.33106 0.157042 2.78627 0.380572C2.24146 0.604102 1.74575 0.933744 1.32753 1.35062C0.909302 1.7675 0.576771 2.26341 0.348975 2.81C0.121178 3.35657 0.00258974 3.94306 0 4.53589V31.4636C0.00258974 32.0563 0.121178 32.6429 0.348975 33.1895C0.576771 33.7359 0.909302 34.232 1.32753 34.6488C1.74575 35.0656 2.24146 35.3954 2.78627 35.6188C3.33106 35.8424 3.91426 35.9553 4.50247 35.9514H31.4975C32.0848 35.9553 32.6673 35.8428 33.2114 35.6198C33.7556 35.3969 34.2509 35.0681 34.669 34.6523C35.0871 34.2365 35.4198 33.7418 35.6481 33.1963C35.8766 32.6509 35.9961 32.0655 35.9999 31.4735V4.53589C35.9974 3.94391 35.8791 3.35824 35.6519 2.81231C35.4248 2.26639 35.0932 1.77091 34.6759 1.35416C34.2588 0.937418 33.7643 0.607568 33.2205 0.383449C32.6769 0.159328 32.0948 0.045326 31.5074 0.0479512" fill="#041527"/>
</g>
<defs>
<clipPath id="clip0_616_2980">
<rect width="157" height="36" fill="white"/>
</clipPath>
</defs>
</svg>
