<svg width="93" height="36" viewBox="0 0 93 36" fill="none" xmlns="http://www.w3.org/2000/svg">
<path d="M91.2227 34.008C91.1461 34.0217 91.0715 34.0454 90.9949 34.0454C88.939 34.0454 86.8811 34.0454 84.8251 34.0454C84.7781 34.0454 84.7329 34.0395 84.6504 34.0335C84.6504 33.9393 84.6504 33.847 84.6504 33.7547C84.6504 32.9771 84.6505 32.2015 84.6465 31.4239C84.6465 31.363 84.6052 31.3041 84.5837 31.2432C84.5404 31.2884 84.4737 31.3257 84.458 31.3787C84.0083 32.8809 82.9184 33.682 81.4673 34.0414C80.9019 34.1808 80.3069 34.2378 79.7237 34.2574C78.6888 34.2907 77.6521 34.2986 76.627 34.1003C75.8318 33.9471 75.0817 33.6918 74.4768 33.1185C73.8348 32.5097 73.548 31.7283 73.4282 30.8859C73.3419 30.2831 73.2908 29.6684 73.2908 29.0597C73.281 21.2444 73.279 13.4311 73.2947 5.61589C73.2947 4.90114 73.3871 4.17262 73.5323 3.47161C73.8603 1.90071 74.8656 0.946384 76.4052 0.534022C77.1906 0.323913 77.9918 0.233587 78.8008 0.231623C81.053 0.223768 83.3072 0.221805 85.5595 0.231623C86.3843 0.23555 87.2011 0.333732 87.9965 0.573294C89.6538 1.06812 90.6041 2.18543 90.8849 3.87219C90.9733 4.40237 91.0165 4.94826 91.0204 5.4863C91.0342 7.72287 91.0263 9.95944 91.0263 12.194C91.0263 12.2864 91.0263 12.3786 91.0263 12.4808H84.0633C84.0633 12.3884 84.0633 12.306 84.0633 12.2216C84.0633 10.3149 84.0672 8.40818 84.0594 6.5015C84.0594 6.23052 84.0259 5.95167 83.9651 5.68855C83.8374 5.14069 83.4703 4.82652 82.9086 4.77546C82.6043 4.74798 82.296 4.73815 81.9916 4.75583C81.167 4.80688 80.7624 5.20943 80.6779 6.03611C80.6603 6.20695 80.6525 6.37975 80.6525 6.55254C80.6525 13.6688 80.6505 20.785 80.6564 27.9011C80.6564 28.2035 80.6977 28.5118 80.7605 28.8083C80.8684 29.313 81.2003 29.637 81.705 29.6959C82.137 29.7449 82.5846 29.7509 83.0147 29.6959C83.5821 29.6213 83.9003 29.2423 84.0083 28.6257C84.0418 28.4333 84.0633 28.237 84.0633 28.0406C84.0672 25.3563 84.0653 22.6739 84.0653 19.9896C84.0653 19.9367 84.0594 19.8817 84.0535 19.809H82.2941V15.2789C82.3765 15.2789 82.461 15.2789 82.5435 15.2789C85.3455 15.2789 88.1477 15.2789 90.9497 15.2789C91.0421 15.2789 91.1324 15.3024 91.2246 15.3163V34.008H91.2227Z" fill="#041527"/>
<path d="M49.2736 17.3639C50.0001 17.5327 50.6285 17.7684 51.1803 18.1748C52.0482 18.8111 52.5312 19.6947 52.7256 20.7276C52.8356 21.3167 52.9004 21.9234 52.9063 22.5243C52.9278 24.643 52.9338 26.7618 52.9043 28.8785C52.8945 29.5698 52.8219 30.2766 52.6608 30.9483C52.2878 32.4936 51.2294 33.4028 49.7154 33.7562C49.0026 33.9231 48.2604 34.0291 47.5299 34.035C43.4239 34.0606 39.3199 34.0469 35.214 34.0469H35.0059V0.225281C35.1021 0.225281 35.1943 0.225281 35.2867 0.225281C39.2747 0.225281 43.261 0.221354 47.249 0.227245C48.1229 0.227245 48.985 0.335245 49.8194 0.612116C51.3452 1.11677 52.223 2.18105 52.49 3.74411C52.5842 4.28999 52.6294 4.84963 52.6314 5.40534C52.6431 7.82256 52.6412 10.2379 52.6255 12.655C52.6196 13.4346 52.492 14.2005 52.1994 14.929C51.7006 16.1679 50.7679 16.9161 49.5073 17.2872C49.4484 17.305 49.3914 17.3246 49.2716 17.3619L49.2736 17.3639ZM42.5069 4.76912V15.2608C43.1038 15.2608 43.687 15.2922 44.2644 15.253C44.9026 15.2097 45.2736 14.8425 45.3856 14.2063C45.4327 13.9373 45.4543 13.6604 45.4543 13.3875C45.4602 11.1352 45.4582 8.88488 45.4543 6.63261C45.4543 6.43624 45.4465 6.23988 45.4269 6.04548C45.3542 5.28555 44.9713 4.82018 44.3115 4.77501C43.7185 4.73574 43.1216 4.76716 42.5049 4.76716L42.5069 4.76912ZM42.5049 19.7988V29.5148C42.5795 29.5187 42.6404 29.5266 42.7013 29.5246C43.2099 29.5167 43.7224 29.5383 44.229 29.4913C44.8848 29.4304 45.2246 29.0906 45.3404 28.4407C45.3856 28.1874 45.4072 27.9262 45.4072 27.669C45.413 25.67 45.4091 23.669 45.4072 21.6701C45.4072 21.4816 45.3993 21.293 45.3817 21.1065C45.3031 20.2642 44.8829 19.8439 44.0386 19.8007C43.5378 19.7752 43.0351 19.7968 42.5049 19.7968V19.7988Z" fill="#041527"/>
<path d="M0.919947 0.226852C1.00046 0.226852 1.0849 0.226852 1.16736 0.226852C5.27332 0.226852 9.3773 0.220961 13.4833 0.228816C14.3001 0.228816 15.1091 0.334852 15.8946 0.578341C17.4733 1.06729 18.3904 2.14139 18.6692 3.7555C18.7576 4.26997 18.8007 4.79818 18.8047 5.32051C18.8184 7.78486 18.8145 10.2472 18.8086 12.7116C18.8086 13.4598 18.7163 14.1981 18.4787 14.9109C18.0311 16.2618 17.1121 17.1298 15.7473 17.5284C15.653 17.5559 15.5608 17.5873 15.4803 17.6109C15.8926 17.7876 16.3188 17.929 16.7055 18.141C17.8622 18.7734 18.465 19.8101 18.7104 21.0649C18.8224 21.6304 18.8911 22.2156 18.895 22.7909C18.9107 26.455 18.9029 30.1192 18.9029 33.7833C18.9029 33.8599 18.9029 33.9365 18.9029 34.0288H11.5019C11.498 33.9483 11.4921 33.8717 11.4921 33.7951C11.4921 29.7618 11.4921 25.7305 11.4882 21.6972C11.4882 21.4243 11.4686 21.1474 11.4214 20.8784C11.3076 20.2304 10.96 19.8769 10.308 19.8298C9.68559 19.7866 9.05722 19.8199 8.40137 19.8199V34.0288H0.916016V0.226852H0.919947ZM8.41709 4.75302V15.2781C8.94137 15.2781 9.44994 15.2781 9.95853 15.2781C10.0764 15.2781 10.1942 15.2781 10.3119 15.2623C10.9384 15.1838 11.3055 14.848 11.4194 14.2236C11.4666 13.9703 11.4901 13.7111 11.4901 13.4539C11.496 11.1799 11.4941 8.90414 11.4921 6.63025C11.4921 6.44174 11.4843 6.25324 11.4666 6.06668C11.39 5.23215 10.9855 4.8021 10.1804 4.76087C9.60114 4.73142 9.01992 4.75498 8.41709 4.75498V4.75302Z" fill="#041527"/>
<path d="M72.8409 34.0368H65.0727C64.847 32.0594 64.6231 30.0799 64.3953 28.0888H61.4302C61.2201 30.0643 61.01 32.0456 60.798 34.0347H53.3008C53.3715 33.3829 53.4402 32.7466 53.509 32.1084C53.6582 30.7378 53.8074 29.3653 53.9586 27.9946C54.1078 26.6318 54.259 25.2671 54.4103 23.9044C54.5732 22.4159 54.7363 20.9276 54.8992 19.4391C55.0818 17.7641 55.2664 16.0891 55.449 14.4142C55.6297 12.7628 55.8064 11.1094 55.9851 9.45796C56.1637 7.82226 56.3444 6.1846 56.5231 4.54888C56.6724 3.18613 56.8255 1.82141 56.9669 0.458648C56.9866 0.27603 57.0435 0.224976 57.2241 0.224976C61.1259 0.228904 65.0257 0.228904 68.9274 0.224976C69.1001 0.224976 69.1532 0.279958 69.1729 0.446866C69.4163 2.71486 69.6676 4.98089 69.9151 7.24888C70.1252 9.18109 70.3314 11.1153 70.5434 13.0475C70.7398 14.8402 70.9401 16.6312 71.1364 18.4239C71.3014 19.9281 71.4604 21.4321 71.6254 22.9363C71.806 24.5877 71.9906 26.2391 72.1713 27.8925C72.3362 29.3966 72.4972 30.9008 72.6602 32.405C72.7191 32.941 72.778 33.4771 72.8409 34.0407V34.0368ZM64.303 23.5489C63.8926 17.715 63.4861 11.9027 63.0777 6.09623C62.8342 6.00983 62.7793 6.10408 62.7655 6.32008C62.6437 8.21302 62.5122 10.104 62.3807 11.995C62.2451 13.9173 62.1057 15.8398 61.9702 17.7641C61.8642 19.2722 61.7581 20.7822 61.6541 22.2902C61.6246 22.7066 61.6011 23.1248 61.5755 23.5509H64.305L64.303 23.5489Z" fill="#041527"/>
<path d="M27.538 29.0689H33.857V34.029H20.0469V0.244751H33.7883V5.18328H27.5302V15.0014H33.5939V19.9655H27.538V29.0689Z" fill="#041527"/>
</svg>
