<svg width="153" height="23" viewBox="0 0 153 23" fill="none" xmlns="http://www.w3.org/2000/svg">
<path d="M11.2753 4.35657H7.81592V22.3811H3.4394V4.35657H0V0.239253H11.2753V4.35657ZM14.7745 9.34121H14.7146V7.55673H10.5674V22.3811H14.7146V14.9539C14.7146 12.7507 14.7146 10.9662 17.506 10.9662C17.72 10.9699 17.9332 10.9899 18.1441 11.0261V7.03831C17.4326 7.10283 16.7495 7.34829 16.1597 7.75138C15.5699 8.15447 15.093 8.70178 14.7745 9.34121ZM26.0398 16.5989C26.0398 17.3366 26.1295 18.8021 25.0429 18.8021C23.6671 18.8021 23.9861 16.5091 23.9861 15.6916V7.55673H19.819V16.4493C19.819 19.151 20.1977 22.6801 24.9033 22.6801C28.5719 22.6801 30.187 20.447 30.187 17.0075V7.55673H26.0696L26.0398 16.5989ZM48.2015 11.1058C48.2015 16.9179 51.6907 22.6203 58.0113 22.6203C58.6949 22.6225 59.3723 22.4903 60.0051 22.2315V18.0943C59.4672 18.2898 58.9021 18.4007 58.3303 18.4232C54.512 18.4232 52.8371 14.3657 52.8371 11.0758C52.8371 7.78599 54.512 4.17713 58.3602 4.17713C58.9159 4.18483 59.4685 4.26184 60.0051 4.40641V0.418693C59.3072 0.153033 58.5684 0.0113492 57.8218 0C51.8402 0 48.2015 5.61272 48.2015 11.1058ZM72.018 14.9539C72.018 18.7423 70.8118 22.6502 66.3755 22.6502C61.9391 22.6502 60.7328 18.7423 60.7328 14.9539C60.7328 11.1656 61.9391 7.22773 66.3755 7.22773C70.8118 7.22773 72.018 11.1955 72.018 14.9539ZM67.8708 14.9539C67.8708 14.1065 67.8111 10.9662 66.3755 10.9662C64.9399 10.9662 64.8801 14.1165 64.8801 14.9539C64.8801 15.7913 64.9399 18.9417 66.3755 18.9417C67.8111 18.9417 67.8708 15.8313 67.8708 14.9539ZM87.1016 7.22773C86.3363 7.28962 85.6023 7.55777 84.9774 8.00365C84.3524 8.44954 83.86 9.05646 83.5525 9.75995H83.4927C83.4677 9.09288 83.1902 8.46029 82.7164 7.99015C82.2425 7.52001 81.6078 7.24749 80.9406 7.22773C80.1394 7.2734 79.3686 7.54995 78.7211 8.02404C78.0737 8.49813 77.5773 9.14949 77.2918 9.89946V7.52679H73.1446V22.3511H77.2918V13.1595C77.2918 12.4018 77.4314 11.4646 78.4682 11.4646C79.505 11.4646 79.4651 13.3389 79.4651 14.0766V22.3811H83.6024V13.0697C83.6024 12.4018 83.7519 11.3949 84.7189 11.3949C85.9552 11.3949 85.7159 13.5781 85.7159 14.3857V22.4309H89.8531V12.1325C89.7734 10.2285 89.7734 7.25766 87.1016 7.25766V7.22773ZM105.126 7.22773C104.361 7.28962 103.627 7.55777 103.002 8.00365C102.377 8.44954 101.884 9.05646 101.577 9.75995H101.517C101.492 9.09288 101.214 8.46029 100.741 7.99015C100.267 7.52001 99.632 7.24749 98.965 7.22773C98.1649 7.27281 97.3951 7.54925 96.7491 8.02355C96.1032 8.49785 95.6088 9.14957 95.3263 9.89946H95.2664V7.52679H91.1292V22.3511H95.2664V13.1595C95.2664 12.4018 95.416 11.4646 96.4428 11.4646C97.4696 11.4646 97.4398 13.3389 97.4398 14.0766V22.3811H101.577V13.0697C101.577 12.4018 101.726 11.3949 102.694 11.3949C103.93 11.3949 103.69 13.5781 103.69 14.3857V22.4309H107.837V12.1325C107.807 10.2285 107.807 7.25766 105.126 7.25766V7.22773ZM119.492 14.3358L119.402 16.0406H112.852C112.852 17.1272 112.852 19.48 114.407 19.48C115.464 19.48 115.733 18.6525 115.733 17.7752H119.253C118.903 20.5068 117.577 22.6502 114.557 22.6502C110.36 22.6502 108.855 18.9117 108.855 15.243C108.855 11.5743 110.151 7.26759 114.468 7.26759C117.199 7.25761 119.721 9.70008 119.492 14.3657V14.3358ZM115.903 13.1296C115.903 12.1325 115.703 10.3979 114.407 10.3979C113.111 10.3979 112.882 12.1027 112.882 13.0398V13.4885H115.873L115.903 13.1296ZM124.745 9.31134H124.686V7.52679H120.549V22.3511H124.686V14.9539C124.686 12.7507 124.686 10.9662 127.477 10.9662C127.695 10.9704 127.911 10.9903 128.125 11.0261V7.03831C127.412 7.10212 126.727 7.34721 126.136 7.75029C125.544 8.15336 125.066 8.70102 124.745 9.34121V9.31134ZM128.793 15.0437C128.793 18.4133 130.208 22.6502 134.226 22.6502C135.05 22.6509 135.863 22.4706 136.609 22.1218V18.3336C136.241 18.6042 135.8 18.7571 135.343 18.7722C133.259 18.7722 132.931 16.3895 132.931 14.7845C132.931 13.1794 133.379 10.7967 135.402 10.7967C135.626 10.7843 135.849 10.8197 136.056 10.9005C136.265 10.9813 136.453 11.1057 136.609 11.2652V7.61655C135.959 7.32765 135.256 7.17821 134.545 7.17789C130.258 7.25765 128.793 11.3451 128.793 15.0735V15.0437ZM147.944 14.3358L147.854 16.0406H141.304C141.304 17.1272 141.304 19.48 142.86 19.48C143.916 19.48 144.186 18.6525 144.186 17.7752H147.705C147.356 20.5068 146.03 22.6502 143.01 22.6502C138.802 22.6502 137.307 18.9117 137.307 15.243C137.307 11.5743 138.603 7.26759 142.92 7.26759C145.651 7.25761 148.174 9.70008 147.944 14.3657V14.3358ZM144.355 13.1296C144.355 12.1325 144.156 10.3979 142.86 10.3979C141.564 10.3979 141.334 12.1027 141.334 13.0398V13.4885H144.325L144.355 13.1296ZM38.3618 20.108C37.6866 19.8088 37.0824 19.3697 36.5893 18.8198C36.0961 18.27 35.7253 17.6217 35.501 16.918C35.2768 16.2142 35.2044 15.4709 35.2885 14.7371C35.3726 14.0033 35.6114 13.2957 35.9891 12.6609C36.7208 11.5603 37.7612 10.7002 38.9799 10.1886C36.8075 10.3651 34.7817 11.3549 33.3074 12.9601C32.6501 13.7376 32.2021 14.6701 32.006 15.6691C31.8098 16.6681 31.8719 17.7008 32.1864 18.6691C32.5008 19.6374 33.0572 20.5095 33.803 21.2027C34.5487 21.8959 35.459 22.3872 36.4477 22.6303C39.907 23.6272 45.5298 22.5007 47.2445 18.5728C45.0412 20.3174 41.0635 21.2047 38.3618 20.138V20.108ZM148.023 8.21467H148.782V10.2085H149.081V8.21467H149.838V7.97542H148.023V8.21467ZM151.822 7.94549L151.184 9.83967L150.536 7.97542H150.098V10.2185H150.387V8.64334C150.387 8.53369 150.387 8.45393 150.387 8.39412V8.33431L151.035 10.2185H151.333L151.971 8.33431V8.67329C151.968 8.74634 151.968 8.81952 151.971 8.89258V10.2185H152.261V7.97542L151.822 7.94549Z" fill="#041527"/>
</svg>
