<svg width="82" height="31" viewBox="0 0 82 31" fill="none" xmlns="http://www.w3.org/2000/svg">
<path d="M30.8285 0.00143627C32.9559 0.0211261 34.1114 0.408524 34.0786 2.723C34.0031 11.4688 29.1542 29.6005 21.8759 29.5382C16.3867 29.4889 15.3396 23.3465 15.1228 15.5331C12.3225 21.5048 10.8386 24.6039 8.99358 27.7062C8.12032 29.1704 7.08948 29.4659 5.96013 29.4528C4.97525 29.4528 2.41127 29.0917 1.81705 28.7175C1.22284 28.3432 0.90111 28.005 0.622059 26.59C-0.691121 20.0439 0.274065 11.6034 1.6726 4.87662C1.91882 3.7046 2.22742 3.13665 3.04487 2.61139C3.91814 2.04999 5.84194 2.02701 7.09275 2.01716C7.74935 2.01716 8.14001 2.4932 7.9693 3.3008C6.70865 9.1707 5.21819 17.2172 6.25232 25.5362C6.25232 25.5362 10.5202 17.2829 14.9391 7.00397C15.8287 4.94227 16.0289 4.2627 16.8596 4.08542C17.8306 3.87333 18.8329 3.84549 19.8141 4.00335C20.5331 4.09528 20.8943 4.28897 20.8581 5.28698C20.7597 7.97244 20.5529 11.0157 20.5298 14.1739C20.484 19.5219 21.0059 25.5329 23.0643 25.5527C25.8319 25.5756 28.3761 12.7491 27.6112 1.68559C27.562 0.920661 27.8443 0.14916 28.6585 0.0736559C29.0688 0.0342661 29.8994 -0.00841868 30.8285 0.00143627ZM41.5244 26.6787C43.7634 26.6984 45.8512 22.8376 46.626 18.1923C45.2013 17.1221 44.5972 15.2048 45.129 12.2042C45.1488 12.109 45.1914 11.9415 45.2472 11.738C44.9237 11.6138 44.5792 11.5535 44.2328 11.5607C40.848 11.5279 38.9144 17.2074 38.8684 22.5028C38.8422 25.2637 39.9091 26.6655 41.5244 26.6787ZM80.4339 10.0703C81.2809 10.1194 81.7142 10.5988 81.5731 11.3408C81.3335 12.5916 80.3977 12.9822 79.078 13.0052C77.5745 13.0249 75.9921 13.061 74.5705 13.1004C74.5705 13.1004 72.8863 20.8547 72.8601 23.7306C72.8601 25.7266 73.7695 26.4194 74.9218 26.4292C76.3761 26.4292 77.7189 25.5362 78.9828 23.271C79.275 22.749 80.3157 23.0871 80.8574 23.7208C81.0938 23.9965 80.8147 24.5513 80.4306 25.1784C78.5199 28.3399 75.8345 30.07 73.0702 30.047C70.0598 30.0207 68.2181 28.5993 67.7814 25.0438C66.0283 27.7457 63.2411 29.9682 60.0697 29.9288C56.2156 29.896 54.5905 27.7522 54.6266 23.9276C54.6463 21.403 55.5327 17.1122 55.5327 17.1122C54.4202 18.1327 53.052 18.8327 51.5735 19.1377C50.0338 26.0582 46.0318 29.8073 40.7036 29.7614C36.1896 29.7187 33.1101 27.3221 33.1528 21.6394C33.2152 14.6237 37.749 8.41235 44.7548 8.47801C48.7501 8.51084 51.6293 10.6776 51.8426 15.6644C53.4841 15.4018 55.0172 14.2922 56.3502 12.7098C56.9772 8.95077 57.8636 4.66323 58.4053 2.24697C58.5169 1.74468 58.7106 0.799186 59.6101 0.529988C60.9021 0.206307 62.2525 0.19506 63.5497 0.497158C64.3835 0.667877 64.5904 1.4525 64.5839 2.13864C64.5674 3.9935 63.6514 8.08078 62.0888 11.7511C60.9693 15.8482 60.1879 19.9388 60.1616 23.1824C60.142 25.5198 60.9102 26.2979 62.2103 26.311C64.331 26.3307 66.8063 23.4056 68.0408 19.4168C68.2443 17.4963 68.7565 14.4169 69.0257 13.2678L66.872 13.3499C66.1892 13.3696 65.526 13.0741 65.5588 12.4668C65.5973 11.752 65.7005 11.0421 65.8674 10.346C65.908 10.0853 66.0455 9.84943 66.2525 9.68568C66.4594 9.52194 66.7206 9.44242 66.9836 9.46295C67.6895 9.46295 68.7105 9.46295 69.761 9.50882C70.132 7.48656 70.4438 5.89762 70.7459 4.58444C70.8178 4.34011 70.9644 4.12445 71.1652 3.96781C71.366 3.81116 71.6109 3.72141 71.8654 3.71117C72.9349 3.63774 74.0094 3.69175 75.0663 3.87204C75.2295 3.89581 75.386 3.95331 75.5258 4.04087C75.6657 4.12844 75.7856 4.24415 75.8783 4.38064C75.9709 4.51714 76.0342 4.67142 76.064 4.83368C76.0937 4.99593 76.0893 5.16261 76.0511 5.3231C75.7622 6.60345 75.1615 9.73867 75.1615 9.73867C77.9914 9.88639 80.447 10.0374 80.447 10.0374" fill="#041527"/>
</svg>
