<svg width="165" height="34" viewBox="0 0 165 34" fill="none" xmlns="http://www.w3.org/2000/svg">
<mask id="mask0_441_2870" style="mask-type:luminance" maskUnits="userSpaceOnUse" x="1" y="0" width="163" height="33">
<path d="M163.234 0.224121H1.0293V32.2727H163.234V0.224121Z" fill="white"/>
</mask>
<g mask="url(#mask0_441_2870)">
<path d="M24.4852 15.8562C27.799 15.8562 30.3062 18.4288 30.3062 21.6337C30.3062 24.8385 27.799 27.3894 24.4852 27.3894C21.1713 27.3894 18.6641 24.8385 18.6641 21.6337C18.6641 18.4288 21.1713 15.8562 24.4852 15.8562ZM24.4852 24.6423C26.2075 24.6423 27.3848 23.2907 27.3848 21.6337C27.3848 19.9768 26.2075 18.6033 24.4852 18.6033C22.7629 18.6033 21.5856 19.9768 21.5856 21.6337C21.5856 23.2907 22.7846 24.6423 24.4852 24.6423Z" fill="white"/>
<path d="M40.7052 25.4491C40.7052 26.2994 39.6151 27.3895 37.6529 27.3895C36.0178 27.3895 34.4916 26.6482 33.5106 25.5145C32.6604 24.5116 32.1152 23.1381 32.1152 21.6337C32.1152 18.3635 34.5135 15.8563 37.5003 15.8563C39.4843 15.8563 40.509 16.8374 40.5962 17.7313V10.9509H43.5394V27.1714H40.7052V25.4491ZM40.5962 19.9551C39.9857 19.1265 39.0047 18.5815 37.8928 18.5815C36.1704 18.5815 35.0585 20.0205 35.0585 21.612C35.0585 23.3561 36.3012 24.6207 37.9582 24.6207C39.0701 24.6207 40.0293 24.0755 40.5962 23.2471V19.9551Z" fill="white"/>
<path d="M55.1576 27.1497C54.7651 27.2805 53.8931 27.3677 53.3262 27.3677C51.5603 27.3677 50.274 26.7791 49.5327 25.7761C48.9659 25.0131 48.7261 24.032 48.7261 22.4623V18.5816H45.6738V16.0744H48.7261V13.0004H51.6693V16.0744H55.2884V18.5816H51.6693V22.8111C51.6693 23.487 51.7783 23.9012 52.0399 24.2065C52.3233 24.5553 52.8029 24.7515 53.5224 24.7515C53.9585 24.7515 54.5254 24.6861 54.7216 24.6425L55.1576 27.1497Z" fill="white"/>
<path d="M117.846 25.427C116.778 26.7133 115.033 27.411 113.355 27.411C110.085 27.411 107.621 25.1218 107.621 21.6553C107.621 18.5812 109.692 15.8778 112.962 15.8778C115.993 15.8778 118.129 18.4504 118.129 21.5463C118.129 21.8515 118.107 22.1349 118.064 22.3966H110.476C110.63 23.9444 111.873 25.0128 113.442 25.0128C114.685 25.0128 115.687 24.3151 116.189 23.7265L117.846 25.427ZM115.098 20.2164C115.011 19.2353 114.118 18.276 112.919 18.276C111.698 18.276 110.695 19.2135 110.565 20.2164H115.098Z" fill="white"/>
<path d="M124.949 22.8765L127.958 16.1179H131.011L125.974 27.1932H123.946L118.91 16.1179H121.962L124.949 22.8765Z" fill="white"/>
<path d="M141.913 25.427C140.844 26.7133 139.101 27.411 137.422 27.411C134.151 27.411 131.688 25.1218 131.688 21.6553C131.688 18.5812 133.759 15.8778 137.03 15.8778C140.06 15.8778 142.196 18.4504 142.196 21.5463C142.196 21.8515 142.174 22.1349 142.131 22.3966H134.544C134.697 23.9444 135.939 25.0128 137.509 25.0128C138.752 25.0128 139.755 24.3151 140.256 23.7265L141.913 25.427ZM139.188 20.2164C139.101 19.2353 138.206 18.276 137.008 18.276C135.787 18.276 134.784 19.2135 134.653 20.2164H139.188Z" fill="white"/>
<path d="M151.68 15.9651L151.331 18.734C151.135 18.6685 150.699 18.6249 150.263 18.6249C148.977 18.6249 147.952 19.5624 147.604 20.2164V27.1712H144.66V16.1177H147.494V17.84C147.494 16.9243 148.715 15.8997 150.677 15.8997C151.113 15.878 151.353 15.9215 151.68 15.9651Z" fill="white"/>
<path d="M162.861 27.1929C162.469 27.3237 161.596 27.411 161.03 27.411C159.264 27.411 157.978 26.8223 157.236 25.8195C156.669 25.0564 156.43 24.0753 156.43 22.5055V18.6248H153.377V16.1176H156.43V13.0219H159.373V16.0958H162.992V18.603H159.373V22.8326C159.373 23.5085 159.482 23.9227 159.744 24.2279C160.027 24.5768 160.507 24.773 161.226 24.773C161.662 24.773 162.228 24.7076 162.425 24.6639L162.861 27.1929Z" fill="white"/>
<path d="M97.4993 21.3501C98.3932 19.8458 98.8292 18.2761 98.8292 16.3793C98.8292 13.5015 97.6737 11.147 96.8016 10.1005H100.202C101.032 11.2995 101.903 13.4579 101.903 16.5102C101.903 19.3444 100.617 22.0914 100.137 23.2469C101.075 24.228 103.103 24.5987 104.148 24.5987C104.846 24.5987 105.435 24.446 105.871 24.2716C105.98 24.773 106.46 27.084 106.46 27.084C105.849 27.3892 104.934 27.629 103.822 27.629C102.361 27.629 100.617 27.2148 98.6548 25.8849C97.6955 27.1059 96.2785 27.9125 94.4252 27.9125C92.0488 27.9125 90.3047 26.3864 90.3047 24.1626C90.3047 21.917 92.0707 20.3473 94.4252 20.3473C95.6898 20.369 96.8235 20.7833 97.4993 21.3501ZM96.2566 23.9664C95.6898 23.5957 95.0357 23.2905 94.4471 23.2905C93.8148 23.2905 93.3352 23.6176 93.3352 24.1626C93.3352 24.7076 93.8148 25.0346 94.4471 25.0346C94.9921 25.0346 95.6462 24.8166 96.2566 23.9664Z" fill="white"/>
<path d="M13.2798 18.3197C11.0124 18.298 9.35548 19.9113 9.33368 22.3095L9.29008 24.8385C6.28143 24.3152 4.51549 21.5682 4.51549 18.8866C4.51549 15.6381 7.00089 12.9783 10.402 13.0219C11.7755 13.0437 13.367 13.7195 14.4135 14.7879L16.5065 12.5423C14.9585 10.9944 12.8655 10.0569 10.511 10.0569C5.06053 10.0569 1.39783 13.8286 1.28882 18.8212C1.20162 23.5522 4.45008 27.3675 9.26828 27.8035V27.8689C9.24647 28.2177 9.13746 29.2642 7.65494 29.8965L9.92233 31.6406C11.1868 31.052 12.3205 29.1553 12.3205 27.7164C14.7842 27.0623 17.0079 24.7949 17.0515 22.1133C17.0515 19.8241 15.46 18.3416 13.2798 18.3197ZM12.3423 24.5986L12.3641 22.3967C12.3859 21.5028 12.8001 21.2412 13.2362 21.2412C13.6504 21.2412 13.9993 21.6336 13.9993 22.1568C13.9993 23.3341 13.2798 24.119 12.3423 24.5986Z" fill="white"/>
<path d="M61.0886 27.9125L63.7484 19.8022L65.7542 13.6978C64.4025 13.4362 63.138 12.6076 62.3531 11.5175C61.1758 9.86062 60.6962 7.76766 61.2848 5.65288C61.7863 3.84333 62.9854 2.33901 64.6206 1.42333C65.6888 0.834687 66.8879 0.529462 68.087 0.529462C69.4605 0.50766 71.0085 1.0309 72.5781 2.1646C74.2787 1.0091 76.1972 0.703876 78.2466 1.22712C80.2088 1.72856 81.8876 3.18928 82.7377 5.04243C83.6317 4.80261 84.9398 4.97702 85.5502 5.15144C87.3598 5.65288 88.8641 6.83017 89.8016 8.48711C90.7172 10.1222 90.9571 12.019 90.4338 13.8285C89.8888 15.7907 88.4498 17.4258 86.5967 18.2543C84.4602 19.2136 82.5198 18.843 81.4951 18.2761C81.4733 18.5377 81.1681 20.1729 80.7757 22.2222C80.0126 26.2773 78.9007 31.9894 78.9007 31.9894L61.0886 27.9125ZM68.2178 3.60351C67.5202 3.58171 66.7571 3.79973 66.1467 4.12675C65.2092 4.65 64.5551 5.50027 64.2717 6.50315C63.9883 7.50603 64.1191 8.57432 64.6206 9.48999C65.1438 10.4275 65.9722 11.0597 66.9751 11.4086C67.7818 11.692 68.7193 11.801 69.3297 11.7574C69.0463 12.6731 64.9257 25.5143 64.9257 25.5143L76.6551 28.2177C76.6551 28.2177 79.4675 15.2239 79.6638 14.33C80.3832 14.8532 83.261 16.5756 85.6374 15.3982C86.5967 14.9186 87.229 14.0247 87.5124 13.0219C87.7958 11.9972 87.665 10.929 87.1417 10.0132C86.6185 9.09756 85.7682 8.42171 84.7436 8.13828C84.4165 8.05108 84.0459 7.98567 83.6971 7.98567C83.4572 7.98567 83.2175 8.00747 82.9776 8.05108C83.1521 9.25017 82.8468 10.2749 82.2145 10.9507C81.6695 11.5394 80.8846 11.8445 79.9908 11.8445C78.639 11.8445 77.4182 10.8417 77.3091 9.42459C77.222 8.44351 77.6798 6.63396 79.9254 5.9581C79.3367 5.19504 78.4647 4.49739 77.44 4.19216C77.0912 4.10495 76.7424 4.03955 76.3935 4.03955C75.5214 4.03955 74.6494 4.32297 73.9517 4.84621C74.9982 5.8709 75.3252 7.22261 74.8891 8.3563C74.5403 9.29377 73.7337 9.90423 72.7089 10.0132C72.6 10.035 72.491 10.035 72.3819 10.035C71.3136 10.035 70.3762 9.42459 69.9184 8.48711C69.3733 7.30981 69.6785 5.80549 70.725 4.45378C70.0709 3.90873 68.9155 3.62531 68.2178 3.60351ZM72.4692 6.00171C71.9459 6.61215 71.8369 7.02639 71.8151 7.30981C71.7933 7.70225 72.0549 8.11647 72.5127 8.13828C72.9052 8.16008 73.1887 7.72405 73.145 7.24441C73.1232 6.98279 72.9052 6.56856 72.4692 6.00171ZM80.9936 7.83306C80.2742 8.05108 79.8817 8.3345 79.7073 8.55252C79.4893 8.83594 79.3803 9.38098 79.7509 9.6644C80.1216 9.94783 80.6666 9.75162 80.8628 9.29377C81.0154 8.98855 81.0591 8.57432 80.9936 7.83306Z" fill="white"/>
</g>
</svg>
